<?xml version="1.0" encoding="iso-8859-1"?>
<!-- Generator: Adobe Illustrator 19.0.0, SVG Export Plug-In . SVG Version: 6.00 Build 0)  -->
<svg version="1.1" id="Layer_1" xmlns="http://www.w3.org/2000/svg" xmlns:xlink="http://www.w3.org/1999/xlink" x="0px" y="0px"
	 viewBox="0 0 512.001 512.001" style="enable-background:new 0 0 512.001 512.001;" xml:space="preserve">
<g>
	<g>
		<path d="M477.356,209.361c-3.183-3.541-8.631-3.831-12.171-0.65c-3.54,3.182-3.831,8.629-0.65,12.17
			c19.777,22.012,30.231,46.968,30.231,72.172c0,17.96-5.142,31.828-15.721,42.395c-32.412,32.377-113.302,32.29-206.964,32.189
			c-10.632-0.011-21.528-0.011-32.16,0c-93.657,0.105-174.552,0.19-206.964-32.189c-10.579-10.566-15.721-24.434-15.721-42.395
			c0-38.969,24.315-75.892,68.463-103.968c2.413-1.534,4.877-3.024,7.373-4.485c11.761,8.059,46.64,35.387,66.399,87.479
			c1.306,3.445,4.582,5.564,8.059,5.564c1.016,0,2.049-0.18,3.054-0.562c4.45-1.688,6.69-6.664,5.002-11.113
			c-18.426-48.577-48.691-77.292-65.612-90.386c21.506-10.452,45.44-18.435,70.934-23.709c6.243,3.95,28.635,19.243,51.005,48.271
			c1.697,2.203,4.25,3.357,6.832,3.357c1.836,0,3.687-0.585,5.255-1.792c3.77-2.905,4.471-8.315,1.566-12.087
			c-14.935-19.38-29.882-33.089-40.848-41.82c16.655-2.273,33.82-3.448,51.281-3.448c8.82,0,17.57,0.307,26.22,0.898
			c0.275,0.203,0.56,0.396,0.863,0.569c0.365,0.208,36.83,21.331,66.497,69.51c1.628,2.645,4.453,4.101,7.347,4.101
			c1.541,0,3.101-0.414,4.51-1.281c4.053-2.495,5.315-7.804,2.82-11.856c-16.115-26.173-34.027-44.889-48.041-57.142
			c49.07,7.975,93.193,25.639,125.966,51.08c3.761,2.919,9.174,2.236,12.091-1.522c2.919-3.76,2.237-9.174-1.522-12.091
			C404.035,148.806,332.323,127.118,256,127.118c-67.696,0-131.461,16.841-179.551,47.423C27.15,205.891,0,247.98,0,293.053
			c0,22.452,6.99,40.818,20.776,54.589c37.466,37.426,121.677,37.334,219.163,37.23c10.619-0.012,21.503-0.012,32.123,0
			c5.124,0.006,10.203,0.011,15.249,0.011c90.961,0,168.416-1.782,203.915-37.241c13.786-13.77,20.776-32.137,20.776-54.589
			C512,263.527,500.02,234.588,477.356,209.361z"/>
	</g>
</g>
<g>
	<g>
		<path d="M386.131,250.828c-2.385-6.289-5.032-12.541-7.866-18.582c-2.02-4.31-7.154-6.163-11.46-4.143
			c-4.309,2.021-6.163,7.153-4.142,11.462c2.65,5.649,5.124,11.494,7.354,17.376c1.306,3.445,4.582,5.564,8.059,5.564
			c1.016,0,2.049-0.18,3.054-0.562C385.579,260.254,387.819,255.278,386.131,250.828z"/>
	</g>
</g>
<g>
	<g>
		<path d="M282.985,256.776c-5.67-14.952-12.683-29.389-20.843-42.909c-2.46-4.073-7.755-5.384-11.832-2.925
			c-4.074,2.46-5.384,7.756-2.925,11.832c7.626,12.635,14.181,26.131,19.485,40.115c1.306,3.445,4.582,5.564,8.059,5.564
			c1.016,0,2.049-0.18,3.054-0.562C282.433,266.201,284.673,261.225,282.985,256.776z"/>
	</g>
</g>
<g>
</g>
<g>
</g>
<g>
</g>
<g>
</g>
<g>
</g>
<g>
</g>
<g>
</g>
<g>
</g>
<g>
</g>
<g>
</g>
<g>
</g>
<g>
</g>
<g>
</g>
<g>
</g>
<g>
</g>
</svg>
